<mxfile host="app.diagrams.net" modified="2024-01-31T21:51:18.815Z" agent="Mozilla/5.0 (X11; Linux x86_64) AppleWebKit/537.36 (KHTML, like Gecko) Chrome/121.0.0.0 Safari/537.36" version="23.1.0" etag="pskoA3KoImT-nSF4RAsv" type="github">
  <diagram name="Page-1" id="iZTrcgNs3cg13t5OAFCf">
    <mxGraphModel>
      <root>
        <mxCell id="0" />
        <mxCell id="1" parent="0" />
      </root>
    </mxGraphModel>
  </diagram>
</mxfile>
